<?xml version="1.0" standalone="no"?>
<!DOCTYPE svg PUBLIC "-//W3C//DTD SVG 20010904//EN"
 "http://www.w3.org/TR/2001/REC-SVG-20010904/DTD/svg10.dtd">
<svg version="1.0" xmlns="http://www.w3.org/2000/svg"
 width="512.000000pt" height="512.000000pt" viewBox="0 0 512.000000 512.000000"
 preserveAspectRatio="xMidYMid meet">
<metadata>
Created by potrace 1.14, written by Peter Selinger 2001-2017
</metadata>
<g transform="translate(0.000000,512.000000) scale(0.100000,-0.100000)"
fill="#000000" stroke="none">
<path d="M3773 4990 c-190 -38 -282 -114 -270 -222 l6 -48 -48 0 c-38 0 -52 5
-71 25 -23 25 -24 25 -214 25 -279 0 -1158 -24 -1306 -35 -74 -6 -393 -15
-650 -19 -212 -4 -313 -19 -340 -53 -11 -14 -29 -23 -45 -23 -44 0 -184 -39
-238 -66 -125 -64 -244 -188 -289 -304 -30 -77 -35 -293 -14 -600 25 -361 54
-517 107 -576 11 -11 24 -36 29 -55 6 -19 10 -178 10 -359 0 -216 5 -372 15
-465 32 -309 35 -397 36 -1156 0 -432 4 -792 9 -805 5 -13 31 -35 62 -51 l53
-27 430 -9 c296 -5 525 -5 735 3 236 10 345 9 480 0 215 -15 791 -5 830 15 17
8 97 12 255 14 127 1 309 6 405 11 96 5 319 12 495 15 300 6 406 14 447 36 52
27 57 111 38 569 -5 129 -15 411 -21 625 -33 1146 -27 1005 -55 1335 -13 148
-15 262 -10 570 3 212 2 459 -2 550 -9 188 -3 226 42 273 41 43 56 95 56 189
0 90 -10 123 -65 208 -23 36 -48 76 -57 90 -8 14 -40 51 -71 83 -30 33 -60 71
-67 86 -8 20 -32 37 -98 68 -138 64 -209 82 -366 93 -78 5 -143 9 -146 9 -3 0
-46 -9 -97 -19z m413 -130 c134 -44 165 -63 254 -163 117 -131 180 -232 187
-301 7 -67 -11 -126 -38 -126 -10 0 -19 5 -19 10 0 6 -11 22 -25 35 -18 19
-35 25 -70 25 -51 0 -53 4 -34 89 8 40 7 55 -5 79 -20 40 -60 52 -166 52 -97
0 -116 10 -122 65 -2 20 -13 36 -37 52 -31 21 -45 23 -168 23 -127 0 -133 1
-122 18 16 25 4 69 -21 82 -11 6 -52 12 -90 13 -39 1 -70 3 -70 4 0 8 90 46
138 58 81 21 327 12 408 -15z m-113 -355 c25 -27 44 -51 44 -51 -1 -1 -436 -3
-967 -5 -937 -4 -967 -3 -1008 15 -40 18 -50 19 -135 7 -51 -7 -124 -22 -163
-32 -66 -18 -226 -31 -237 -19 -2 3 -7 19 -10 36 l-6 30 237 13 c130 7 296 16
367 21 72 6 294 12 495 16 201 3 424 9 495 13 72 5 290 8 486 7 l356 -1 46
-50z m-3060 0 c219 -4 309 -17 410 -61 35 -16 37 -19 36 -63 0 -75 -19 -112
-71 -148 -52 -34 -79 -34 -147 2 -67 34 -147 2 -192 -78 l-23 -41 -14 34 c-21
52 -41 70 -79 70 -67 0 -98 -58 -109 -205 -10 -136 -55 -345 -75 -345 -4 0
-10 13 -14 29 -3 16 -19 50 -35 75 -27 42 -33 46 -69 46 -60 0 -64 -12 -57
-153 16 -315 22 -483 18 -505 -4 -20 -9 -23 -45 -20 -34 2 -44 8 -60 35 -10
18 -25 57 -33 85 -30 114 -70 642 -62 822 4 92 9 113 36 168 41 84 125 168
212 213 45 24 143 54 153 48 4 -2 103 -6 220 -8z m3269 -180 c6 -14 9 -27 6
-30 -3 -3 -27 5 -54 17 l-49 22 35 7 c19 3 38 7 43 8 4 0 13 -10 19 -24z
m-1894 -5 c38 0 42 -2 42 -24 0 -14 11 -38 25 -54 l24 -29 178 -8 c228 -10
221 -10 468 4 120 8 244 10 290 5 44 -4 195 -8 335 -9 309 -2 352 -10 529
-104 42 -22 120 -197 122 -271 1 -25 5 -56 9 -70 5 -15 6 1 3 42 -3 39 -2 73
4 80 6 7 13 35 16 62 5 46 20 69 42 63 6 -3 12 -233 15 -653 5 -609 4 -650
-12 -666 -28 -28 -23 -66 12 -86 27 -16 30 -22 30 -70 0 -55 16 -98 45 -122
15 -13 16 -29 10 -134 -8 -130 -16 -166 -40 -166 -11 0 -15 12 -15 47 0 52
-20 83 -55 83 -22 0 -48 -22 -57 -50 -10 -29 11 -133 32 -162 18 -25 20 -38
15 -96 -3 -37 -10 -148 -15 -247 -6 -99 -14 -193 -18 -210 l-9 -30 -6 26 c-6
24 -21 34 -78 52 -20 6 -29 84 -29 251 0 133 -11 189 -43 224 -18 20 -29 23
-64 19 l-42 -4 -12 56 c-8 38 -9 108 -4 222 6 147 5 168 -10 182 -29 30 -72
21 -94 -20 -15 -29 -15 -388 0 -449 15 -60 56 -102 106 -110 l40 -6 6 -162
c10 -249 27 -310 95 -331 18 -5 32 -14 32 -21 0 -6 9 -23 20 -37 28 -36 26
-111 -6 -216 -15 -47 -30 -90 -35 -96 -11 -12 -11 -66 0 -83 7 -11 9 -11 14 1
10 26 96 134 132 166 37 32 71 45 102 39 16 -3 18 -16 21 -126 1 -73 -2 -130
-8 -142 -7 -13 -7 -26 -1 -38 20 -37 33 -228 21 -300 -10 -64 -13 -69 -43 -80
-18 -6 -109 -16 -202 -22 -94 -5 -184 -12 -200 -15 -77 -13 -350 -24 -359 -15
-8 8 -7 13 3 19 9 6 12 20 7 47 -3 22 -8 57 -11 79 -3 22 -16 59 -28 82 -19
38 -27 44 -72 53 -75 15 -402 16 -555 2 -74 -7 -200 -17 -280 -23 -80 -5 -197
-19 -262 -29 -85 -15 -155 -20 -260 -18 -120 2 -160 -2 -248 -22 -86 -19 -135
-24 -270 -25 -91 0 -237 -6 -324 -13 -142 -11 -162 -11 -183 4 -14 8 -26 14
-27 12 -1 -2 -24 -29 -50 -61 -27 -32 -52 -73 -55 -90 -6 -30 -11 -33 -56 -39
-28 -3 -111 -7 -186 -7 -123 -1 -138 -3 -154 -21 -13 -15 -31 -20 -66 -20 -41
0 -51 4 -65 26 -16 24 -16 26 4 53 19 26 20 43 21 202 1 96 -1 291 -5 434 -5
199 -4 257 5 249 18 -17 44 -140 46 -216 1 -47 6 -73 18 -86 12 -13 17 -36 17
-76 0 -60 12 -79 69 -116 20 -14 25 -27 31 -98 6 -72 11 -87 35 -112 16 -17
36 -32 45 -35 9 -3 23 -16 29 -29 30 -55 80 -50 149 17 76 72 91 136 81 337
-5 85 -13 174 -19 197 -16 66 -12 95 21 143 28 42 30 50 28 121 -2 45 1 82 8
90 6 8 23 39 39 69 24 48 28 69 32 160 4 115 -25 295 -50 311 -33 21 -75 2
-91 -42 -3 -9 1 -45 9 -80 7 -35 13 -107 13 -159 l-1 -95 -13 60 c-8 33 -14
65 -14 72 -1 20 -52 73 -71 73 -10 0 -28 -8 -41 -19 -20 -16 -22 -26 -21 -90
1 -39 9 -90 18 -114 9 -23 20 -73 24 -110 5 -48 13 -74 29 -90 29 -32 26 -59
-10 -111 -37 -52 -48 -120 -29 -181 6 -22 15 -110 20 -195 8 -129 6 -163 -6
-202 -9 -26 -19 -50 -24 -53 -4 -3 -22 3 -38 12 -27 15 -30 24 -36 81 -9 82
-25 121 -65 154 -35 30 -38 51 -21 139 6 30 13 119 16 198 5 172 -2 194 -64
189 -27 -2 -40 -9 -49 -28 -9 -17 -13 -20 -13 -8 0 9 -21 35 -47 57 l-46 41
-4 128 c-2 70 -3 142 -3 161 0 22 -8 43 -21 57 -20 22 -21 30 -15 126 4 57 2
173 -3 258 -6 85 -12 301 -15 480 l-6 325 43 20 c73 35 79 56 75 297 l-3 208
31 -6 c53 -10 92 18 124 89 30 67 70 244 70 312 0 52 6 58 36 38 30 -19 87
-12 116 14 11 10 31 39 44 64 38 76 44 79 106 58 29 -10 72 -18 96 -19 58 0
156 50 210 109 31 33 42 41 42 27 0 -14 5 -17 23 -11 12 3 60 10 107 15 48 5
122 23 170 39 56 20 106 31 145 32 33 0 96 6 140 13 44 8 103 12 130 10 28 -2
69 -3 93 -4z m2201 -2687 c21 -17 22 -24 19 -203 -3 -181 -3 -185 -25 -195
-13 -5 -23 -15 -23 -22 0 -25 -29 -13 -48 20 -18 30 -19 45 -15 207 6 183 12
210 53 210 10 0 27 -8 39 -17z"/>
<path d="M487 4188 c-9 -13 -18 -50 -22 -83 -14 -131 31 -205 126 -205 62 0
115 24 133 59 21 41 26 117 9 141 -15 21 -57 27 -82 11 -8 -5 -17 -29 -20 -53
-5 -35 -10 -44 -28 -46 -21 -3 -23 0 -23 47 0 27 4 61 9 74 15 39 -7 71 -51
75 -29 3 -40 -1 -51 -20z"/>
<path d="M2606 3457 c-15 -11 -18 -37 -23 -210 -3 -108 -9 -197 -12 -197 -4 0
-14 9 -24 20 -11 14 -29 20 -55 20 -66 0 -102 -59 -102 -165 0 -47 -2 -51 -29
-62 -58 -22 -64 -50 -70 -348 -4 -171 -10 -269 -16 -268 -16 3 -33 83 -34 160
-1 79 -12 117 -43 150 -19 21 -20 31 -16 128 5 94 4 108 -14 130 -10 14 -34
28 -51 33 l-32 8 0 248 c0 245 0 249 -22 263 -19 12 -26 13 -50 1 -37 -17 -41
-51 -42 -330 l-1 -216 25 -31 c14 -16 36 -33 48 -37 34 -11 38 -23 31 -121 -7
-92 -7 -92 23 -126 28 -32 30 -42 36 -133 8 -127 19 -165 65 -213 48 -50 101
-63 140 -34 52 39 56 58 63 333 3 140 7 256 8 256 0 1 14 4 30 7 41 8 53 36
59 133 4 76 6 82 23 74 10 -6 34 -10 54 -10 45 0 90 43 104 98 5 21 11 122 14
225 5 177 4 190 -14 208 -22 22 -48 24 -73 6z"/>
<path d="M2545 929 c-22 -5 -85 -8 -140 -7 -94 1 -211 -9 -228 -19 -13 -8
-203 -52 -253 -59 -27 -3 -62 -12 -79 -19 l-30 -13 47 -1 c26 -1 87 8 135 20
67 16 141 23 308 29 121 5 237 13 259 18 21 6 93 13 160 17 66 3 171 13 231
20 61 8 128 16 150 18 22 2 -86 4 -240 4 -154 0 -298 -3 -320 -8z"/>
</g>
</svg>
